<svg width="115" height="102" viewBox="0 0 115 102" fill="none" xmlns="http://www.w3.org/2000/svg">
<path d="M24.6172 27.934C24.6172 17.2827 11.9322 11.7381 4.11444 18.9722V18.9722C4.04142 19.0398 3.9999 19.1347 3.9999 19.2342V100H24.6172V27.934Z" fill="#15616D" fill-opacity="0.75"/>
<g filter="url(#filter0_d_261_74)">
<rect width="13.9506" height="13.8272" rx="6.91358" transform="matrix(-1 0 0 1 19.9255 38.889)" fill="#FFECD1"/>
<rect x="0.5" y="-0.5" width="14.9506" height="14.8272" rx="7.41358" transform="matrix(-1 0 0 1 20.9255 38.889)" stroke="#CD6807"/>
</g>
<g filter="url(#filter1_d_261_74)">
<rect width="13.9506" height="13.8272" rx="6.91358" transform="matrix(-1 0 0 1 19.9255 58.8889)" fill="#FFECD1"/>
<rect x="0.5" y="-0.5" width="14.9506" height="14.8272" rx="7.41358" transform="matrix(-1 0 0 1 20.9255 58.8889)" stroke="#CD6807"/>
</g>
<g filter="url(#filter2_d_261_74)">
<rect width="13.9506" height="13.9506" rx="6.97531" transform="matrix(-1 0 0 1 19.9255 78.7655)" fill="#FFECD1"/>
<rect x="0.5" y="-0.5" width="14.9506" height="14.9506" rx="7.47531" transform="matrix(-1 0 0 1 20.9255 78.7655)" stroke="#CD6807"/>
</g>
<g filter="url(#filter3_d_261_74)">
<circle r="4.43827" transform="matrix(-1 0 0 1 13.0122 26.4194)" stroke="#CD6807"/>
<g filter="url(#filter4_d_261_74)">
<circle r="2.25716" transform="matrix(-1 0 0 1 13.0126 26.4196)" stroke="#FFECD1" stroke-width="2" shape-rendering="crispEdges"/>
</g>
<g filter="url(#filter5_d_261_74)">
<path d="M13.1611 25.7789C12.7174 25.454 12.101 25.8207 12.1746 26.3656L12.2706 27.0756C12.3238 27.4695 12.8545 27.5572 13.0317 27.2014V27.2014C13.0999 27.0644 13.2398 26.9777 13.3928 26.9777L13.4217 26.9777C13.8569 26.9777 14.0388 26.4215 13.6876 26.1644L13.1611 25.7789Z" fill="#FFECD1"/>
<path d="M11.7751 27.1425L11.6792 26.4326C11.5465 25.4507 12.6571 24.7902 13.4565 25.3755L13.983 25.761C14.7164 26.2979 14.3484 27.4529 13.4508 27.4773C13.0287 28.2116 11.8916 28.0044 11.7751 27.1425Z" stroke="#CD6807"/>
</g>
</g>
<path d="M91 27.934C91 17.2827 103.685 11.7381 111.503 18.9722V18.9722C111.576 19.0398 111.617 19.1347 111.617 19.2342V100H91V27.934Z" fill="#15616D" fill-opacity="0.75"/>
<g filter="url(#filter6_d_261_74)">
<rect x="95.6917" y="38.8889" width="13.9506" height="13.8272" rx="6.91358" fill="#FFECD1"/>
<rect x="95.1917" y="38.3889" width="14.9506" height="14.8272" rx="7.41358" stroke="#CD6807"/>
</g>
<g filter="url(#filter7_d_261_74)">
<rect x="95.6917" y="58.8888" width="13.9506" height="13.8272" rx="6.91358" fill="#FFECD1"/>
<rect x="95.1917" y="58.3888" width="14.9506" height="14.8272" rx="7.41358" stroke="#CD6807"/>
</g>
<g filter="url(#filter8_d_261_74)">
<rect x="95.6917" y="78.7654" width="13.9506" height="13.9506" rx="6.97531" fill="#FFECD1"/>
<rect x="95.1917" y="78.2654" width="14.9506" height="14.9506" rx="7.47531" stroke="#CD6807"/>
</g>
<g filter="url(#filter9_d_261_74)">
<circle cx="102.605" cy="26.4196" r="4.43827" stroke="#CD6807"/>
<g filter="url(#filter10_d_261_74)">
<circle cx="102.605" cy="26.4196" r="2.25716" stroke="#FFECD1" stroke-width="2" shape-rendering="crispEdges"/>
</g>
<g filter="url(#filter11_d_261_74)">
<path d="M102.457 25.7788C102.9 25.4539 103.517 25.8205 103.443 26.3655L103.347 27.0754C103.294 27.4693 102.763 27.5571 102.586 27.2013V27.2013C102.518 27.0642 102.378 26.9776 102.225 26.9776L102.196 26.9776C101.761 26.9776 101.579 26.4214 101.93 26.1643L102.457 25.7788Z" fill="#FFECD1"/>
<path d="M103.843 27.1424L103.939 26.4325C104.071 25.4506 102.961 24.79 102.161 25.3754L101.635 25.7609C100.901 26.2978 101.269 27.4528 102.167 27.4772C102.589 28.2115 103.726 28.0043 103.843 27.1424Z" stroke="#CD6807"/>
</g>
</g>
<defs>
<filter id="filter0_d_261_74" x="0.974854" y="37.889" width="23.9507" height="23.8271" filterUnits="userSpaceOnUse" color-interpolation-filters="sRGB">
<feFlood flood-opacity="0" result="BackgroundImageFix"/>
<feColorMatrix in="SourceAlpha" type="matrix" values="0 0 0 0 0 0 0 0 0 0 0 0 0 0 0 0 0 0 127 0" result="hardAlpha"/>
<feOffset dy="4"/>
<feGaussianBlur stdDeviation="2"/>
<feComposite in2="hardAlpha" operator="out"/>
<feColorMatrix type="matrix" values="0 0 0 0 0 0 0 0 0 0 0 0 0 0 0 0 0 0 0.25 0"/>
<feBlend mode="normal" in2="BackgroundImageFix" result="effect1_dropShadow_261_74"/>
<feBlend mode="normal" in="SourceGraphic" in2="effect1_dropShadow_261_74" result="shape"/>
</filter>
<filter id="filter1_d_261_74" x="0.974854" y="57.8889" width="23.9507" height="23.8271" filterUnits="userSpaceOnUse" color-interpolation-filters="sRGB">
<feFlood flood-opacity="0" result="BackgroundImageFix"/>
<feColorMatrix in="SourceAlpha" type="matrix" values="0 0 0 0 0 0 0 0 0 0 0 0 0 0 0 0 0 0 127 0" result="hardAlpha"/>
<feOffset dy="4"/>
<feGaussianBlur stdDeviation="2"/>
<feComposite in2="hardAlpha" operator="out"/>
<feColorMatrix type="matrix" values="0 0 0 0 0 0 0 0 0 0 0 0 0 0 0 0 0 0 0.25 0"/>
<feBlend mode="normal" in2="BackgroundImageFix" result="effect1_dropShadow_261_74"/>
<feBlend mode="normal" in="SourceGraphic" in2="effect1_dropShadow_261_74" result="shape"/>
</filter>
<filter id="filter2_d_261_74" x="0.974854" y="77.7655" width="23.9507" height="23.9506" filterUnits="userSpaceOnUse" color-interpolation-filters="sRGB">
<feFlood flood-opacity="0" result="BackgroundImageFix"/>
<feColorMatrix in="SourceAlpha" type="matrix" values="0 0 0 0 0 0 0 0 0 0 0 0 0 0 0 0 0 0 127 0" result="hardAlpha"/>
<feOffset dy="4"/>
<feGaussianBlur stdDeviation="2"/>
<feComposite in2="hardAlpha" operator="out"/>
<feColorMatrix type="matrix" values="0 0 0 0 0 0 0 0 0 0 0 0 0 0 0 0 0 0 0.25 0"/>
<feBlend mode="normal" in2="BackgroundImageFix" result="effect1_dropShadow_261_74"/>
<feBlend mode="normal" in="SourceGraphic" in2="effect1_dropShadow_261_74" result="shape"/>
</filter>
<filter id="filter3_d_261_74" x="3.07397" y="16.4811" width="19.8765" height="19.8766" filterUnits="userSpaceOnUse" color-interpolation-filters="sRGB">
<feFlood flood-opacity="0" result="BackgroundImageFix"/>
<feColorMatrix in="SourceAlpha" type="matrix" values="0 0 0 0 0 0 0 0 0 0 0 0 0 0 0 0 0 0 127 0" result="hardAlpha"/>
<feOffset/>
<feGaussianBlur stdDeviation="2.5"/>
<feComposite in2="hardAlpha" operator="out"/>
<feColorMatrix type="matrix" values="0 0 0 0 1 0 0 0 0 0.92549 0 0 0 0 0.819608 0 0 0 0.52 0"/>
<feBlend mode="normal" in2="BackgroundImageFix" result="effect1_dropShadow_261_74"/>
<feBlend mode="normal" in="SourceGraphic" in2="effect1_dropShadow_261_74" result="shape"/>
</filter>
<filter id="filter4_d_261_74" x="1.75537" y="15.1625" width="22.5144" height="22.5143" filterUnits="userSpaceOnUse" color-interpolation-filters="sRGB">
<feFlood flood-opacity="0" result="BackgroundImageFix"/>
<feColorMatrix in="SourceAlpha" type="matrix" values="0 0 0 0 0 0 0 0 0 0 0 0 0 0 0 0 0 0 127 0" result="hardAlpha"/>
<feOffset/>
<feGaussianBlur stdDeviation="4"/>
<feComposite in2="hardAlpha" operator="out"/>
<feColorMatrix type="matrix" values="0 0 0 0 1 0 0 0 0 0.92549 0 0 0 0 0.819608 0 0 0 0.25 0"/>
<feBlend mode="normal" in2="BackgroundImageFix" result="effect1_dropShadow_261_74"/>
<feBlend mode="normal" in="SourceGraphic" in2="effect1_dropShadow_261_74" result="shape"/>
</filter>
<filter id="filter5_d_261_74" x="7.16797" y="24.6539" width="11.7068" height="11.772" filterUnits="userSpaceOnUse" color-interpolation-filters="sRGB">
<feFlood flood-opacity="0" result="BackgroundImageFix"/>
<feColorMatrix in="SourceAlpha" type="matrix" values="0 0 0 0 0 0 0 0 0 0 0 0 0 0 0 0 0 0 127 0" result="hardAlpha"/>
<feOffset dy="4"/>
<feGaussianBlur stdDeviation="2"/>
<feComposite in2="hardAlpha" operator="out"/>
<feColorMatrix type="matrix" values="0 0 0 0 0 0 0 0 0 0 0 0 0 0 0 0 0 0 0.25 0"/>
<feBlend mode="normal" in2="BackgroundImageFix" result="effect1_dropShadow_261_74"/>
<feBlend mode="normal" in="SourceGraphic" in2="effect1_dropShadow_261_74" result="shape"/>
</filter>
<filter id="filter6_d_261_74" x="90.6917" y="37.8889" width="23.9507" height="23.8271" filterUnits="userSpaceOnUse" color-interpolation-filters="sRGB">
<feFlood flood-opacity="0" result="BackgroundImageFix"/>
<feColorMatrix in="SourceAlpha" type="matrix" values="0 0 0 0 0 0 0 0 0 0 0 0 0 0 0 0 0 0 127 0" result="hardAlpha"/>
<feOffset dy="4"/>
<feGaussianBlur stdDeviation="2"/>
<feComposite in2="hardAlpha" operator="out"/>
<feColorMatrix type="matrix" values="0 0 0 0 0 0 0 0 0 0 0 0 0 0 0 0 0 0 0.25 0"/>
<feBlend mode="normal" in2="BackgroundImageFix" result="effect1_dropShadow_261_74"/>
<feBlend mode="normal" in="SourceGraphic" in2="effect1_dropShadow_261_74" result="shape"/>
</filter>
<filter id="filter7_d_261_74" x="90.6917" y="57.8888" width="23.9507" height="23.8271" filterUnits="userSpaceOnUse" color-interpolation-filters="sRGB">
<feFlood flood-opacity="0" result="BackgroundImageFix"/>
<feColorMatrix in="SourceAlpha" type="matrix" values="0 0 0 0 0 0 0 0 0 0 0 0 0 0 0 0 0 0 127 0" result="hardAlpha"/>
<feOffset dy="4"/>
<feGaussianBlur stdDeviation="2"/>
<feComposite in2="hardAlpha" operator="out"/>
<feColorMatrix type="matrix" values="0 0 0 0 0 0 0 0 0 0 0 0 0 0 0 0 0 0 0.25 0"/>
<feBlend mode="normal" in2="BackgroundImageFix" result="effect1_dropShadow_261_74"/>
<feBlend mode="normal" in="SourceGraphic" in2="effect1_dropShadow_261_74" result="shape"/>
</filter>
<filter id="filter8_d_261_74" x="90.6917" y="77.7654" width="23.9507" height="23.9506" filterUnits="userSpaceOnUse" color-interpolation-filters="sRGB">
<feFlood flood-opacity="0" result="BackgroundImageFix"/>
<feColorMatrix in="SourceAlpha" type="matrix" values="0 0 0 0 0 0 0 0 0 0 0 0 0 0 0 0 0 0 127 0" result="hardAlpha"/>
<feOffset dy="4"/>
<feGaussianBlur stdDeviation="2"/>
<feComposite in2="hardAlpha" operator="out"/>
<feColorMatrix type="matrix" values="0 0 0 0 0 0 0 0 0 0 0 0 0 0 0 0 0 0 0.25 0"/>
<feBlend mode="normal" in2="BackgroundImageFix" result="effect1_dropShadow_261_74"/>
<feBlend mode="normal" in="SourceGraphic" in2="effect1_dropShadow_261_74" result="shape"/>
</filter>
<filter id="filter9_d_261_74" x="92.6667" y="16.4813" width="19.8765" height="19.8766" filterUnits="userSpaceOnUse" color-interpolation-filters="sRGB">
<feFlood flood-opacity="0" result="BackgroundImageFix"/>
<feColorMatrix in="SourceAlpha" type="matrix" values="0 0 0 0 0 0 0 0 0 0 0 0 0 0 0 0 0 0 127 0" result="hardAlpha"/>
<feOffset/>
<feGaussianBlur stdDeviation="2.5"/>
<feComposite in2="hardAlpha" operator="out"/>
<feColorMatrix type="matrix" values="0 0 0 0 1 0 0 0 0 0.92549 0 0 0 0 0.819608 0 0 0 0.52 0"/>
<feBlend mode="normal" in2="BackgroundImageFix" result="effect1_dropShadow_261_74"/>
<feBlend mode="normal" in="SourceGraphic" in2="effect1_dropShadow_261_74" result="shape"/>
</filter>
<filter id="filter10_d_261_74" x="91.3477" y="15.1625" width="22.5144" height="22.5143" filterUnits="userSpaceOnUse" color-interpolation-filters="sRGB">
<feFlood flood-opacity="0" result="BackgroundImageFix"/>
<feColorMatrix in="SourceAlpha" type="matrix" values="0 0 0 0 0 0 0 0 0 0 0 0 0 0 0 0 0 0 127 0" result="hardAlpha"/>
<feOffset/>
<feGaussianBlur stdDeviation="4"/>
<feComposite in2="hardAlpha" operator="out"/>
<feColorMatrix type="matrix" values="0 0 0 0 1 0 0 0 0 0.92549 0 0 0 0 0.819608 0 0 0 0.25 0"/>
<feBlend mode="normal" in2="BackgroundImageFix" result="effect1_dropShadow_261_74"/>
<feBlend mode="normal" in="SourceGraphic" in2="effect1_dropShadow_261_74" result="shape"/>
</filter>
<filter id="filter11_d_261_74" x="96.7429" y="24.6538" width="11.7068" height="11.772" filterUnits="userSpaceOnUse" color-interpolation-filters="sRGB">
<feFlood flood-opacity="0" result="BackgroundImageFix"/>
<feColorMatrix in="SourceAlpha" type="matrix" values="0 0 0 0 0 0 0 0 0 0 0 0 0 0 0 0 0 0 127 0" result="hardAlpha"/>
<feOffset dy="4"/>
<feGaussianBlur stdDeviation="2"/>
<feComposite in2="hardAlpha" operator="out"/>
<feColorMatrix type="matrix" values="0 0 0 0 0 0 0 0 0 0 0 0 0 0 0 0 0 0 0.25 0"/>
<feBlend mode="normal" in2="BackgroundImageFix" result="effect1_dropShadow_261_74"/>
<feBlend mode="normal" in="SourceGraphic" in2="effect1_dropShadow_261_74" result="shape"/>
</filter>
</defs>
</svg>
