<svg width="40" height="101" viewBox="0 0 40 101" fill="none" xmlns="http://www.w3.org/2000/svg">
<rect width="39.5482" height="101" rx="5" fill="#15616D" fill-opacity="0.5"/>
<rect x="18.6724" y="8.96631" width="16.0065" height="0.751733" rx="0.375866" fill="#FFECD1"/>
<rect x="18.6724" y="12.7253" width="8.44787" height="0.751733" rx="0.375866" fill="#FFECD1"/>
<rect x="18.6724" y="27.7612" width="8.44787" height="0.751733" rx="0.375866" fill="#FFECD1"/>
<rect x="18.6724" y="16.4845" width="8.44787" height="0.751733" rx="0.375866" fill="#FFECD1"/>
<rect x="18.6724" y="31.5178" width="8.44787" height="0.751733" rx="0.375866" fill="#FFECD1"/>
<rect x="18.6724" y="20.2432" width="8.44787" height="0.751733" rx="0.375866" fill="#FFECD1"/>
<rect x="18.6724" y="35.2769" width="8.44787" height="0.751733" rx="0.375866" fill="#FFECD1"/>
<rect x="18.6724" y="24.0022" width="15.5619" height="0.751733" rx="0.375866" fill="#FFECD1"/>
<rect x="18.6724" y="39.0359" width="15.5619" height="0.751733" rx="0.375866" fill="#FFECD1"/>
<rect x="18.6724" y="42.7952" width="8.44787" height="0.751733" rx="0.375866" fill="#FFECD1"/>
<rect x="18.6724" y="57.8285" width="8.44787" height="0.751733" rx="0.375866" fill="#FFECD1"/>
<rect x="18.6724" y="46.5537" width="8.44787" height="0.751733" rx="0.375866" fill="#FFECD1"/>
<rect x="18.6724" y="61.5875" width="8.44787" height="0.751733" rx="0.375866" fill="#FFECD1"/>
<rect x="18.6724" y="50.3127" width="8.44787" height="0.751733" rx="0.375866" fill="#FFECD1"/>
<rect x="18.6724" y="65.3466" width="8.44787" height="0.751733" rx="0.375866" fill="#FFECD1"/>
<rect x="18.6724" y="54.072" width="15.5619" height="0.751733" rx="0.375866" fill="#FFECD1"/>
<rect x="18.6724" y="69.1055" width="15.5619" height="0.751733" rx="0.375866" fill="#FFECD1"/>
<path d="M6.28826 5.31855C6.28826 3.38916 7.85234 1.82507 9.78174 1.82507C11.7111 1.82507 13.2752 3.38916 13.2752 5.31855V84.4631C13.2752 85.7551 13.7753 86.9969 14.6707 87.9283L15.3084 88.5916C17.5043 90.8759 17.0488 94.6006 14.3672 96.2884L12.4451 97.4982C10.8173 98.5226 8.74618 98.5226 7.11841 97.4981L5.19632 96.2884C2.51466 94.6006 2.05917 90.8759 4.25509 88.5916L4.89281 87.9283C5.78817 86.9969 6.28826 85.7551 6.28826 84.4631V5.31855Z" fill="#FFECD1"/>
<path d="M6.08492 66.3193C6.08492 64.3031 7.71935 62.6687 9.73552 62.6687C11.7517 62.6687 13.3861 64.3031 13.3861 66.3193V84.4982C13.3861 85.1498 13.5135 85.7951 13.761 86.3978L14.1876 87.4364C15.4738 90.5679 13.171 94.003 9.78568 94.003C6.3739 94.003 4.07059 90.5185 5.40754 87.3796L5.68504 86.728C5.94891 86.1085 6.08492 85.4421 6.08492 84.7687V66.3193Z" fill="#FF3D00"/>
<path d="M16.4266 91.8733C16.4266 95.4016 13.4301 98.2618 9.73379 98.2618C6.03747 98.2618 3.04102 95.4016 3.04102 91.8733C3.04102 88.345 6.03747 85.4847 9.73379 85.4847C13.4301 85.4847 16.4266 88.345 16.4266 91.8733Z" fill="#FF3D00"/>
</svg>
